<svg width="21" height="21" viewBox="0 0 21 21" fill="none" xmlns="http://www.w3.org/2000/svg">
<path d="M14.7053 10.4525C14.7053 11.2647 14.4644 12.0587 14.0132 12.734C13.5619 13.4094 12.9206 13.9357 12.1702 14.2465C11.4198 14.5574 10.5941 14.6387 9.7975 14.4802C9.0009 14.3218 8.26918 13.9307 7.69486 13.3563C7.12054 12.782 6.72943 12.0503 6.57097 11.2537C6.41252 10.4571 6.49385 9.6314 6.80466 8.88102C7.11548 8.13063 7.64183 7.48927 8.31716 7.03803C8.99249 6.5868 9.78645 6.34595 10.5987 6.34595C11.6878 6.34595 12.7323 6.77861 13.5025 7.54874C14.2726 8.31888 14.7053 9.36341 14.7053 10.4525Z" stroke="#E6D131" stroke-width="2.10811" stroke-linecap="round" stroke-linejoin="round"/>
<path d="M10.598 1.41797V3.06089" stroke="#E6D131" stroke-width="2.10811" stroke-linecap="round" stroke-linejoin="round"/>
<path d="M10.598 17.8438V19.4867" stroke="#E6D131" stroke-width="2.10811" stroke-linecap="round" stroke-linejoin="round"/>
<path d="M4.20825 4.06226L5.37474 5.22874" stroke="#E6D131" stroke-width="2.10811" stroke-linecap="round" stroke-linejoin="round"/>
<path d="M15.8219 15.6758L16.9884 16.8423" stroke="#E6D131" stroke-width="2.10811" stroke-linecap="round" stroke-linejoin="round"/>
<path d="M1.56409 10.4519H3.20701" stroke="#E6D131" stroke-width="2.10811" stroke-linecap="round" stroke-linejoin="round"/>
<path d="M17.9897 10.4519H19.6327" stroke="#E6D131" stroke-width="2.10811" stroke-linecap="round" stroke-linejoin="round"/>
<path d="M4.20825 16.8423L5.37474 15.6758" stroke="#E6D131" stroke-width="2.10811" stroke-linecap="round" stroke-linejoin="round"/>
<path d="M15.8219 5.22874L16.9884 4.06226" stroke="#E6D131" stroke-width="2.10811" stroke-linecap="round" stroke-linejoin="round"/>
</svg>
